<svg width="22" height="23" viewBox="0 0 22 23" fill="none" xmlns="http://www.w3.org/2000/svg">
<g clip-path="url(#clip0_23_1553)">
<path d="M20.0629 5.88877C20.0224 5.83486 19.9716 5.78939 19.9134 5.75498C19.8552 5.72057 19.7908 5.69788 19.7237 5.68822C19.6567 5.67855 19.5884 5.68209 19.5227 5.69864C19.4571 5.71519 19.3953 5.74443 19.3411 5.78468L11.024 11.9484C10.9943 11.9706 10.9581 11.9825 10.9209 11.9825C10.8837 11.9825 10.8475 11.9706 10.8178 11.9484L2.66403 5.75737C2.6102 5.71659 2.5488 5.68673 2.48335 5.6695C2.41789 5.65227 2.34966 5.64801 2.28255 5.65697C2.21544 5.66592 2.15076 5.68791 2.0922 5.72168C2.03365 5.75545 1.98237 5.80034 1.94129 5.85379C1.90021 5.90723 1.87014 5.96819 1.85279 6.03318C1.83544 6.09816 1.83115 6.16591 1.84016 6.23254C1.84918 6.29917 1.87133 6.36339 1.90534 6.42152C1.93936 6.47966 1.98457 6.53057 2.0384 6.57135L8.44934 11.4399L2.10887 16.1838C2.05425 16.2243 2.00819 16.275 1.97331 16.3332C1.93844 16.3913 1.91544 16.4557 1.90562 16.5226C1.89581 16.5895 1.89937 16.6578 1.91611 16.7233C1.93284 16.7889 1.96243 16.8506 2.00317 16.9048C2.04391 16.9591 2.09501 17.0048 2.15355 17.0394C2.21209 17.074 2.27693 17.0969 2.34436 17.1066C2.41179 17.1164 2.4805 17.1128 2.54655 17.0962C2.61261 17.0796 2.67472 17.0502 2.72934 17.0098L9.30012 12.0849L10.1904 12.7675C10.398 12.9253 10.6517 13.0116 10.9132 13.0135C11.1746 13.0153 11.4295 12.9326 11.6393 12.7778L12.5743 12.0849L19.2225 17.0098C19.2767 17.05 19.3385 17.0792 19.4041 17.0958C19.4698 17.1123 19.5381 17.1158 19.6051 17.1062C19.6721 17.0965 19.7366 17.0738 19.7948 17.0394C19.853 17.005 19.9038 16.9596 19.9443 16.9057C19.9849 16.8518 20.0143 16.7905 20.0309 16.7253C20.0476 16.6601 20.0512 16.5923 20.0414 16.5258C20.0317 16.4592 20.0088 16.3952 19.9742 16.3374C19.9395 16.2796 19.8938 16.2292 19.8395 16.189L13.4354 11.4382L19.9581 6.60036C20.0663 6.51925 20.1379 6.3991 20.1576 6.26592C20.1772 6.13274 20.1432 5.99725 20.0629 5.88877V5.88877Z" fill="#282828"/>
<path d="M19.4219 3.69931H2.57812C1.89436 3.69931 1.23861 3.96899 0.755115 4.44903C0.271623 4.92906 0 5.58013 0 6.259L0 16.4978C0 17.1766 0.271623 17.8277 0.755115 18.3077C1.23861 18.7878 1.89436 19.0575 2.57812 19.0575H19.4219C20.1056 19.0575 20.7614 18.7878 21.2449 18.3077C21.7284 17.8277 22 17.1766 22 16.4978V6.259C22 5.58013 21.7284 4.92906 21.2449 4.44903C20.7614 3.96899 20.1056 3.69931 19.4219 3.69931ZM20.9687 16.4978C20.9687 16.9051 20.8058 17.2957 20.5157 17.5837C20.2256 17.8718 19.8321 18.0336 19.4219 18.0336H2.57812C2.16787 18.0336 1.77441 17.8718 1.48432 17.5837C1.19422 17.2957 1.03125 16.9051 1.03125 16.4978V6.259C1.03125 5.85168 1.19422 5.46104 1.48432 5.17302C1.77441 4.885 2.16787 4.72319 2.57812 4.72319H19.4219C19.8321 4.72319 20.2256 4.885 20.5157 5.17302C20.8058 5.46104 20.9687 5.85168 20.9687 6.259V16.4978Z" fill="#282828" stroke="#282828" stroke-width="0.5"/>
</g>
<defs>
<clipPath id="clip0_23_1553">
<rect width="22" height="21.8427" fill="white" transform="translate(0 0.457036)"/>
</clipPath>
</defs>
</svg>
