<svg width="28" height="22" viewBox="0 0 28 22" fill="none" xmlns="http://www.w3.org/2000/svg">
<g clip-path="url(#clip0_23_1587)">
<path d="M27.6719 10.7803C27.6664 12.6276 27.1523 14.2573 26.1133 15.7717C25.1344 17.2009 23.7836 18.3912 22.0828 19.3297C20.5898 20.1531 18.9547 20.7162 17.1664 21.0063C15.1867 21.3263 13.207 21.2921 11.2437 20.9252C10.2047 20.729 9.20937 20.4304 8.27421 20.0336C8.11562 19.9654 7.9789 19.9611 7.80937 20.0038C5.74765 20.52 3.68593 21.0319 1.62421 21.5438C1.38906 21.6036 1.15937 21.659 0.924212 21.7273C0.76015 21.7742 0.749212 21.7273 0.792962 21.6206C1.03359 21.0703 1.26874 20.52 1.50937 19.9654C2.02343 18.7666 2.53749 17.5678 3.06249 16.3733C3.13359 16.2154 3.02968 16.113 2.94765 16.0021C2.30234 15.1275 1.84296 14.1975 1.55859 13.2163C0.940619 11.1003 1.15937 9.02695 2.19843 7.0176C2.79999 5.8572 3.65859 4.81626 4.75781 3.89478C6.15781 2.71732 7.81484 1.85129 9.7289 1.27109C11.5172 0.729291 13.3656 0.52025 15.2687 0.609839C17.8773 0.733557 20.2508 1.40761 22.3344 2.63626C25.0305 4.22327 26.7258 6.30942 27.4039 8.89897C27.5844 9.56022 27.65 10.23 27.6719 10.7803ZM14.3555 2.33763C13.8469 2.32057 13.2508 2.36749 12.6547 2.43575C12.4195 2.46135 12.1898 2.49974 11.9602 2.54667C8.40546 3.25059 5.85156 4.90585 4.34765 7.51247C3.47812 9.01842 3.24296 10.6097 3.57109 12.2394C3.82812 13.5277 4.44062 14.7137 5.39765 15.7845C5.50156 15.904 5.51796 16.0064 5.45781 16.1386C5.05312 17.0644 4.65937 17.9944 4.26015 18.9244C4.23828 18.9756 4.17265 19.0353 4.23281 19.0823C4.29296 19.1335 4.36953 19.078 4.43515 19.0609C5.63281 18.7623 6.83046 18.4679 8.01718 18.1565C8.29062 18.084 8.48749 18.1181 8.72265 18.229C11.4078 19.4876 14.2789 19.8203 17.3031 19.1932C19.6 18.7196 21.4922 17.7427 22.9906 16.3007C24.4398 14.9057 25.2492 13.3102 25.4133 11.5269C25.5391 10.1575 25.2656 8.82645 24.5656 7.55513C23.6852 5.95533 22.3125 4.67548 20.4586 3.72413C18.643 2.79411 16.6359 2.3163 14.3555 2.33763Z" fill="#282828"/>
<path d="M7.82569 8.42985C7.84756 7.46997 8.32881 6.68073 9.26943 6.06641C9.5374 5.89149 9.86006 5.81897 10.2155 5.8659C10.3687 5.88296 10.5272 5.90003 10.6749 5.88723C11.0468 5.8659 11.2601 6.02801 11.3749 6.26691C11.7249 6.98363 12.064 7.70461 12.4085 8.42132C12.4741 8.55784 12.4577 8.68156 12.3757 8.80954C12.1624 9.1551 11.8233 9.42387 11.4843 9.69263C11.189 9.92727 11.1726 10.0041 11.3749 10.2899C12.3538 11.6721 13.7046 12.7472 15.5749 13.3999C15.6679 13.4298 15.7499 13.481 15.8374 13.5108C16.0726 13.6004 16.2858 13.5919 16.4827 13.434C16.8655 13.1312 17.221 12.8069 17.5655 12.4742C17.8335 12.2139 17.9593 12.1755 18.3366 12.3078C19.2554 12.6405 20.1304 13.0288 21.0218 13.4042C21.3171 13.5279 21.3499 13.6985 21.3062 14.01C21.1257 15.277 19.8843 15.853 18.4679 16.0364C17.9921 16.0961 17.5437 16.062 17.0952 15.9511C15.7827 15.6268 14.4921 15.2514 13.3327 14.6627C12.2499 14.1124 11.3202 13.4255 10.5054 12.6448C9.7124 11.8812 9.00693 11.0749 8.42178 10.2003C8.09365 9.70117 7.82569 8.92473 7.82569 8.42985Z" fill="#282828"/>
</g>
<defs>
<clipPath id="clip0_23_1587">
<rect width="28" height="21.8427" fill="white"/>
</clipPath>
</defs>
</svg>
