<svg width="109" height="30" viewBox="0 0 109 30" fill="none" xmlns="http://www.w3.org/2000/svg">
<path d="M31.1124 20.1691C29.8379 18.516 28.3463 16.9834 26.6647 15.5992C26.6341 15.5678 26.6175 15.5286 26.6175 15.4883C26.6175 15.448 26.6341 15.4089 26.6647 15.3774C28.1118 13.75 29.3906 12.0254 30.4878 10.2218C30.6465 9.96373 30.722 9.67634 30.7069 9.38728C30.6918 9.09822 30.5867 8.81722 30.4017 8.57132C30.2329 8.32139 29.9862 8.11313 29.6871 7.96805C29.3879 7.82297 29.0472 7.74634 28.7001 7.74607H25.4693C25.0594 7.75263 24.6602 7.85548 24.3187 8.04253C23.9772 8.22959 23.7076 8.49308 23.5416 8.80203C22.6032 10.5121 21.4786 12.1486 20.1816 13.6914V9.34333C20.1831 9.13324 20.1339 8.92501 20.037 8.73069C19.9401 8.53637 19.7973 8.35983 19.6171 8.21127C19.4368 8.06272 19.2225 7.94511 18.9867 7.86526C18.7508 7.78541 18.4981 7.7449 18.2432 7.74607H13.5262C13.2516 7.74959 12.9834 7.81484 12.7505 7.93478C12.5177 8.05472 12.329 8.2248 12.2048 8.42664C12.0807 8.62849 12.0258 8.85445 12.0461 9.08011C12.0664 9.30578 12.1612 9.52259 12.3201 9.70714L12.7509 10.2041C12.9819 10.4775 13.1059 10.8026 13.1062 11.1358V14.5433C11.6846 12.8104 10.5544 10.9268 9.74623 8.94401C9.6005 8.59461 9.32607 8.29139 8.9612 8.07664C8.59634 7.8619 8.15923 7.74634 7.71084 7.74607H5.07237C4.79203 7.74883 4.51606 7.80369 4.26503 7.90656C4.014 8.00943 3.79438 8.15765 3.62254 8.34019C3.4507 8.52272 3.33108 8.73486 3.27258 8.96078C3.21408 9.18671 3.21821 9.4206 3.28468 9.64503C4.73853 14.7296 7.78623 18.9446 11.6524 21.1807C11.8841 21.3164 12.1715 21.371 12.4519 21.3328C12.7323 21.2946 12.983 21.1665 13.1493 20.9766C13.2325 20.8818 13.2921 20.7743 13.3247 20.6605C13.3572 20.5466 13.3622 20.4285 13.3391 20.313C13.3161 20.1976 13.2656 20.087 13.1905 19.9877C13.1154 19.8884 13.0173 19.8023 12.9016 19.7343C9.52007 17.7821 6.82776 14.0641 5.46007 9.5208H7.72161C8.71263 12.0018 10.2055 14.3269 12.137 16.3979C12.3602 16.6329 12.6677 16.804 13.0157 16.8868C13.3637 16.9696 13.7345 16.96 14.0755 16.8593C14.4253 16.7588 14.7279 16.5702 14.9405 16.3202C15.1531 16.0702 15.2649 15.7714 15.2601 15.4661V11.1358C15.2624 10.5717 15.092 10.0162 14.7647 9.5208H17.9955V14.3392C17.9916 14.684 18.1256 15.0202 18.3766 15.296C18.6277 15.5719 18.9819 15.7719 19.3847 15.8654C19.7755 15.9726 20.1982 15.9707 20.5875 15.86C20.9769 15.7493 21.3111 15.5361 21.5386 15.2532C23.0682 13.455 24.3743 11.5345 25.437 9.5208H28.4524C27.426 11.1838 26.2412 12.7771 24.9093 14.2859C24.5735 14.6561 24.4105 15.1135 24.45 15.5746C24.4895 16.0356 24.729 16.4696 25.1247 16.7972C26.6954 18.1014 28.1092 19.5278 29.3463 21.0565H25.7386C24.6256 19.5385 23.1311 18.2344 21.3555 17.232C21.0891 17.0711 20.7733 16.9751 20.444 16.9547C20.1146 16.9343 19.785 16.9904 19.4924 17.1166C19.1916 17.2435 18.9395 17.4369 18.7645 17.6751C18.5896 17.9133 18.4985 18.187 18.5016 18.4654V20.5773C18.5075 20.7006 18.4544 20.8209 18.3536 20.9122C18.2529 21.0035 18.1127 21.0585 17.9632 21.0654H17.037C16.7514 21.0654 16.4775 21.1589 16.2755 21.3253C16.0736 21.4917 15.9601 21.7174 15.9601 21.9527C15.9601 22.1881 16.0736 22.4138 16.2755 22.5802C16.4775 22.7466 16.7514 22.8401 17.037 22.8401H17.9632C18.3205 22.8378 18.6737 22.7774 19.0026 22.6623C19.3315 22.5472 19.6296 22.3797 19.8797 22.1695C20.1299 21.9592 20.3272 21.7104 20.4603 21.4372C20.5934 21.1639 20.6597 20.8717 20.6555 20.5773V19.0067C21.9509 19.8096 23.0477 20.8097 23.8863 21.9527C24.0714 22.2171 24.3362 22.4377 24.655 22.5931C24.9738 22.7486 25.3359 22.8336 25.7063 22.8401H29.3463C29.7185 22.8409 30.084 22.7588 30.4044 22.6026C30.7247 22.4465 30.9879 22.2219 31.1663 21.9527C31.3492 21.678 31.4406 21.3682 31.4311 21.055C31.4217 20.7417 31.3117 20.4361 31.1124 20.1691Z" fill="black"/>
<path d="M57.0754 2.72952C53.0821 2.72952 52.5814 2.74347 51.0131 2.80243C49.4481 2.8613 48.3793 3.06607 47.4439 3.36559C46.4771 3.67521 45.6571 4.08947 44.8397 4.76301C44.0222 5.43654 43.5195 6.11218 43.1437 6.90888C42.7802 7.67951 42.5317 8.56022 42.4603 9.84977C42.3887 11.142 42.3718 11.5546 42.3718 14.845C42.3718 18.1353 42.3887 18.5479 42.4603 19.8401C42.5317 21.1296 42.7802 22.0104 43.1437 22.781C43.5195 23.5777 44.0222 24.2533 44.8397 24.9269C45.6571 25.6004 46.4771 26.0147 47.4439 26.3243C48.3793 26.6238 49.4481 26.8286 51.0131 26.8874C52.5814 26.9464 53.0821 26.9603 57.0754 26.9603C61.0686 26.9603 61.5694 26.9464 63.1377 26.8874C64.7027 26.8286 65.7715 26.6238 66.7068 26.3243C67.6737 26.0147 68.4937 25.6004 69.3111 24.9269C70.1286 24.2533 70.6313 23.5777 71.0071 22.781C71.3705 22.0104 71.6191 21.1296 71.6905 19.8401C71.762 18.5479 71.779 18.1353 71.779 14.845C71.779 11.5546 71.762 11.142 71.6905 9.84977C71.6191 8.56022 71.3705 7.67951 71.0071 6.90888C70.6313 6.11218 70.1286 5.43654 69.3111 4.76301C68.4937 4.08947 67.6737 3.67521 66.7068 3.36559C65.7715 3.06607 64.7027 2.8613 63.1377 2.80243C61.5694 2.74347 61.0686 2.72952 57.0754 2.72952ZM57.0754 4.91252C61.0014 4.91252 61.4665 4.92484 63.0169 4.98312C64.4505 5.03703 65.229 5.23441 65.7471 5.40028C66.4335 5.62006 66.9233 5.88264 67.4378 6.30657C67.9523 6.73051 68.2709 7.13414 68.5377 7.69961C68.739 8.12653 68.9786 8.76803 69.0439 9.94927C69.1147 11.2268 69.1297 11.61 69.1297 14.845C69.1297 18.0799 69.1147 18.4631 69.0439 19.7406C68.9786 20.9218 68.739 21.5633 68.5377 21.9903C68.2709 22.5558 67.9523 22.9594 67.4378 23.3833C66.9233 23.8073 66.4335 24.0698 65.7471 24.2896C65.229 24.4555 64.4505 24.6529 63.0169 24.7067C61.4667 24.765 61.0017 24.7774 57.0754 24.7774C53.1491 24.7774 52.6842 24.765 51.1339 24.7067C49.7003 24.6529 48.9218 24.4555 48.4037 24.2896C47.7173 24.0698 47.2275 23.8073 46.713 23.3833C46.1985 22.9594 45.8798 22.5558 45.6131 21.9903C45.4118 21.5633 45.1722 20.9218 45.1068 19.7406C45.0361 18.4631 45.0211 18.0799 45.0211 14.845C45.0211 11.61 45.0361 11.2268 45.1068 9.94927C45.1722 8.76803 45.4118 8.12653 45.6131 7.69961C45.8798 7.13414 46.1985 6.73051 46.713 6.30657C47.2275 5.88264 47.7173 5.62006 48.4037 5.40028C48.9218 5.23441 49.7003 5.03703 51.1339 4.98312C52.6843 4.92484 53.1494 4.91252 57.0754 4.91252Z" fill="black"/>
<path d="M57.0738 18.8834C54.3669 18.8834 52.1726 17.0753 52.1726 14.8449C52.1726 12.6145 54.3669 10.8064 57.0738 10.8064C59.7807 10.8064 61.975 12.6145 61.975 14.8449C61.975 17.0753 59.7807 18.8834 57.0738 18.8834ZM57.0738 8.62347C52.9038 8.62347 49.5233 11.4089 49.5233 14.8449C49.5233 18.2809 52.9038 21.0663 57.0738 21.0663C61.2438 21.0663 64.6243 18.2809 64.6243 14.8449C64.6243 11.4089 61.2438 8.62347 57.0738 8.62347Z" fill="black"/>
<path d="M66.6904 8.37773C66.6904 9.18068 65.9004 9.83156 64.9259 9.83156C63.9515 9.83156 63.1615 9.18068 63.1615 8.37773C63.1615 7.57478 63.9515 6.9239 64.9259 6.9239C65.9004 6.9239 66.6904 7.57478 66.6904 8.37773Z" fill="black"/>
<g clip-path="url(#clip0_23_1648)">
<path d="M99.012 11.4325C99.0268 11.3132 98.9337 11.2078 98.8135 11.2078H94.6833V8.85342C94.6833 7.96924 95.3945 7.7631 95.8954 7.7631C96.3106 7.7631 98.1577 7.7631 98.7711 7.7631C98.8816 7.7631 98.9698 7.67356 98.9698 7.5631V4.07542C98.9698 3.96522 98.8807 3.87578 98.7705 3.87543L94.7357 3.86245C90.0354 3.86245 88.9657 6.76152 88.9657 8.61676V11.2078H86.4474C86.337 11.2078 86.2474 11.2973 86.2474 11.4078V15.0132C86.2474 15.1236 86.337 15.2132 86.4474 15.2132H88.9657C88.9657 19.8139 88.9657 25.2583 88.9657 26.3506C88.9657 26.4611 89.0553 26.547 89.1657 26.547H94.4833C94.5937 26.547 94.6833 26.461 94.6833 26.3506C94.6833 25.2527 94.6833 19.7617 94.6833 15.2132H98.3646C98.4656 15.2132 98.5507 15.138 98.5631 15.0379L99.012 11.4325Z" stroke="black" stroke-width="2"/>
</g>
<defs>
<clipPath id="clip0_23_1648">
<rect width="32.3078" height="26.6209" fill="white" transform="translate(76 1)"/>
</clipPath>
</defs>
</svg>
